<?xml version="1.0" standalone="no"?>
<!DOCTYPE svg PUBLIC "-//W3C//DTD SVG 20010904//EN"
 "http://www.w3.org/TR/2001/REC-SVG-20010904/DTD/svg10.dtd">
<svg version="1.0" xmlns="http://www.w3.org/2000/svg"
 width="1024.000000pt" height="1024.000000pt" viewBox="0 0 1024.000000 1024.000000"
 preserveAspectRatio="xMidYMid meet">

<g transform="translate(0.000000,1024.000000) scale(0.100000,-0.100000)"
fill="#000000" stroke="none">
<path d="M3275 9469 c-806 -6 -816 -7 -1035 -63 -759 -192 -1339 -853 -1432
-1631 -20 -165 -19 -5163 1 -5315 88 -681 547 -1276 1186 -1537 128 -53 321
-107 455 -129 142 -23 1062 -30 3335 -27 1704 3 1873 6 2058 38 838 146 1505
853 1587 1684 14 144 14 5142 0 5282 -53 525 -350 1023 -800 1340 -251 177
-551 298 -845 340 -133 19 -2967 30 -4510 18z m3347 -1054 c166 -41 307 -154
377 -300 53 -110 69 -191 68 -345 0 -178 -6 -168 209 -358 191 -169 326 -311
442 -465 397 -525 598 -1089 619 -1727 17 -540 -107 -1055 -362 -1511 -401
-714 -1058 -1242 -1840 -1479 -565 -171 -1197 -185 -1750 -40 -669 176 -1271
569 -1688 1102 -579 741 -778 1666 -552 2559 100 394 288 773 555 1119 88 114
382 410 500 504 47 37 148 110 225 161 359 238 731 395 1125 475 262 53 379
64 675 64 241 -1 289 -4 450 -28 99 -15 190 -24 202 -21 12 3 70 50 128 106
130 124 233 178 385 203 42 6 172 -4 232 -19z"/>
<path d="M5045 7999 c-554 -29 -1077 -213 -1548 -543 -401 -280 -739 -680
-946 -1118 -183 -386 -264 -755 -264 -1188 1 -380 69 -706 223 -1064 147 -339
335 -613 609 -886 237 -237 458 -394 766 -545 308 -151 612 -243 945 -287 150
-20 618 -16 764 5 812 121 1495 522 1971 1154 298 397 482 864 536 1362 13
126 7 470 -11 606 -79 580 -322 1103 -717 1536 -106 117 -323 315 -323 294 0
-3 -9 -1 -21 5 -43 24 -159 30 -183 11 -7 -6 -30 -13 -52 -17 -21 -3 -42 -8
-47 -11 -4 -2 -17 -6 -30 -8 -214 -34 -239 -35 -336 -20 -92 15 -150 39 -235
97 -169 115 -225 191 -281 384 -19 66 -42 125 -54 138 -12 12 -19 25 -15 28 7
7 -69 24 -196 44 -82 12 -376 36 -405 32 -5 -1 -73 -4 -150 -9z"/>
</g>
</svg>
